<?xml version="1.0" encoding="utf-8"?>
<!-- Generator: Adobe Illustrator 26.5.0, SVG Export Plug-In . SVG Version: 6.00 Build 0)  -->
<svg version="1.1" id="Layer_1" xmlns="http://www.w3.org/2000/svg" xmlns:xlink="http://www.w3.org/1999/xlink" x="0px" y="0px"
	 viewBox="0 0 1814.17 1275.59" style="enable-background:new 0 0 1814.17 1275.59;" xml:space="preserve">
<style type="text/css">
	.st0{fill-rule:evenodd;clip-rule:evenodd;fill:none;stroke:#0000FF;stroke-linecap:round;stroke-linejoin:round;}
	.st1{fill-rule:evenodd;clip-rule:evenodd;fill:none;stroke:#FF0000;stroke-linecap:round;stroke-linejoin:round;}
	.st2{fill-rule:evenodd;clip-rule:evenodd;fill:none;stroke:#000000;stroke-miterlimit:22.9256;}
</style>
<polygon class="st0" points="96.38,549.92 96.38,540 99.21,540 99.21,520.16 99.21,521.22 99.21,501.38 99.21,500.31 99.21,480.47 
	96.38,480.47 96.38,470.55 86.46,470.55 86.46,467.72 66.61,467.72 46.77,467.72 26.93,467.72 26.93,470.55 17.01,470.55 
	17.01,480.47 14.17,480.47 14.17,500.31 14.17,500.31 14.17,520.16 14.17,520.16 14.17,540 17.01,540 17.01,549.92 26.93,549.92 
	26.93,552.76 46.77,552.76 66.61,552.76 86.46,552.76 86.46,549.92 "/>
<path class="st1" d="M78.38,542.83c0-1.64,1.33-2.98,2.98-2.98c1.64,0,2.98,1.33,2.98,2.98c0,1.64-1.33,2.98-2.98,2.98
	C79.71,545.81,78.38,544.48,78.38,542.83"/>
<path class="st1" d="M68.74,542.83c0-1.64,1.33-2.98,2.98-2.98c1.64,0,2.98,1.33,2.98,2.98c0,1.64-1.33,2.98-2.98,2.98
	C70.07,545.81,68.74,544.48,68.74,542.83"/>
<path class="st1" d="M58.54,542.83c0-1.64,1.33-2.98,2.98-2.98c1.64,0,2.98,1.33,2.98,2.98c0,1.64-1.33,2.98-2.98,2.98
	C59.87,545.81,58.54,544.48,58.54,542.83"/>
<path class="st1" d="M48.9,542.83c0-1.64,1.33-2.98,2.98-2.98c1.64,0,2.98,1.33,2.98,2.98c0,1.64-1.33,2.98-2.98,2.98
	C50.23,545.81,48.9,544.48,48.9,542.83"/>
<path class="st1" d="M38.69,542.83c0-1.64,1.33-2.98,2.98-2.98c1.64,0,2.98,1.33,2.98,2.98c0,1.64-1.33,2.98-2.98,2.98
	C40.03,545.81,38.69,544.48,38.69,542.83"/>
<path class="st1" d="M29.06,542.83c0-1.64,1.33-2.98,2.98-2.98c1.64,0,2.98,1.33,2.98,2.98c0,1.64-1.33,2.98-2.98,2.98
	C30.39,545.81,29.06,544.48,29.06,542.83"/>
<path class="st1" d="M35.01,477.64c0,1.64-1.33,2.98-2.98,2.98c-1.64,0-2.98-1.33-2.98-2.98c0-1.64,1.33-2.98,2.98-2.98
	C33.68,474.66,35.01,475.99,35.01,477.64"/>
<path class="st1" d="M44.65,477.64c0,1.64-1.33,2.98-2.98,2.98c-1.64,0-2.98-1.33-2.98-2.98c0-1.64,1.33-2.98,2.98-2.98
	C43.31,474.66,44.65,475.99,44.65,477.64"/>
<path class="st1" d="M54.85,477.64c0,1.64-1.33,2.98-2.98,2.98c-1.64,0-2.98-1.33-2.98-2.98c0-1.64,1.33-2.98,2.98-2.98
	C53.52,474.66,54.85,475.99,54.85,477.64"/>
<path class="st1" d="M64.49,477.64c0,1.64-1.33,2.98-2.98,2.98c-1.64,0-2.98-1.33-2.98-2.98c0-1.64,1.33-2.98,2.98-2.98
	C63.16,474.66,64.49,475.99,64.49,477.64"/>
<path class="st1" d="M74.69,477.64c0,1.64-1.33,2.98-2.98,2.98c-1.64,0-2.98-1.33-2.98-2.98c0-1.64,1.33-2.98,2.98-2.98
	C73.36,474.66,74.69,475.99,74.69,477.64"/>
<path class="st1" d="M84.33,477.64c0,1.64-1.33,2.98-2.98,2.98c-1.64,0-2.98-1.33-2.98-2.98c0-1.64,1.33-2.98,2.98-2.98
	C83,474.66,84.33,475.99,84.33,477.64"/>
<path class="st1" d="M89.29,488.55c-1.64,0-2.98-1.33-2.98-2.98c0-1.64,1.33-2.98,2.98-2.98c1.64,0,2.98,1.33,2.98,2.98
	C92.27,487.22,90.94,488.55,89.29,488.55"/>
<path class="st1" d="M89.29,498.19c-1.64,0-2.98-1.33-2.98-2.98c0-1.64,1.33-2.98,2.98-2.98c1.64,0,2.98,1.33,2.98,2.98
	C92.27,496.86,90.94,498.19,89.29,498.19"/>
<path class="st1" d="M89.29,508.39c-1.64,0-2.98-1.33-2.98-2.98c0-1.64,1.33-2.98,2.98-2.98c1.64,0,2.98,1.33,2.98,2.98
	C92.27,507.06,90.94,508.39,89.29,508.39"/>
<path class="st1" d="M89.29,518.03c-1.64,0-2.98-1.33-2.98-2.98c0-1.64,1.33-2.98,2.98-2.98c1.64,0,2.98,1.33,2.98,2.98
	C92.27,516.7,90.94,518.03,89.29,518.03"/>
<path class="st1" d="M89.29,528.24c-1.64,0-2.98-1.33-2.98-2.98c0-1.64,1.33-2.98,2.98-2.98c1.64,0,2.98,1.33,2.98,2.98
	C92.27,526.9,90.94,528.24,89.29,528.24"/>
<path class="st1" d="M89.29,537.87c-1.64,0-2.98-1.33-2.98-2.98c0-1.64,1.33-2.98,2.98-2.98c1.64,0,2.98,1.33,2.98,2.98
	C92.27,536.54,90.94,537.87,89.29,537.87"/>
<path class="st1" d="M24.09,531.92c1.64,0,2.98,1.33,2.98,2.98c0,1.64-1.33,2.98-2.98,2.98c-1.64,0-2.98-1.33-2.98-2.98
	C21.12,533.25,22.45,531.92,24.09,531.92"/>
<path class="st1" d="M24.09,522.28c1.64,0,2.98,1.33,2.98,2.98c0,1.64-1.33,2.98-2.98,2.98c-1.64,0-2.98-1.33-2.98-2.98
	C21.12,523.62,22.45,522.28,24.09,522.28"/>
<path class="st1" d="M24.09,512.08c1.64,0,2.98,1.33,2.98,2.98c0,1.64-1.33,2.98-2.98,2.98c-1.64,0-2.98-1.33-2.98-2.98
	C21.12,513.41,22.45,512.08,24.09,512.08"/>
<path class="st1" d="M24.09,502.44c1.64,0,2.98,1.33,2.98,2.98c0,1.64-1.33,2.98-2.98,2.98c-1.64,0-2.98-1.33-2.98-2.98
	C21.12,503.77,22.45,502.44,24.09,502.44"/>
<path class="st1" d="M24.09,492.24c1.64,0,2.98,1.33,2.98,2.98c0,1.64-1.33,2.98-2.98,2.98c-1.64,0-2.98-1.33-2.98-2.98
	C21.12,493.57,22.45,492.24,24.09,492.24"/>
<path class="st1" d="M24.09,482.6c1.64,0,2.98,1.33,2.98,2.98c0,1.64-1.33,2.98-2.98,2.98c-1.64,0-2.98-1.33-2.98-2.98
	C21.12,483.93,22.45,482.6,24.09,482.6"/>
<polygon class="st0" points="96.38,277.8 96.38,267.87 99.21,267.87 99.21,248.03 99.21,249.1 99.21,229.25 99.21,228.19 
	99.21,208.35 96.38,208.35 96.38,198.43 86.46,198.43 86.46,195.59 66.61,195.59 46.77,195.59 26.93,195.59 26.93,198.43 
	17.01,198.43 17.01,208.35 14.17,208.35 14.17,228.19 14.17,228.19 14.17,248.03 14.17,248.03 14.17,267.87 17.01,267.87 
	17.01,277.8 26.93,277.8 26.93,280.63 46.77,280.63 66.61,280.63 86.46,280.63 86.46,277.8 "/>
<path class="st1" d="M78.38,270.71c0-1.64,1.33-2.98,2.98-2.98c1.64,0,2.98,1.33,2.98,2.98c0,1.64-1.33,2.98-2.98,2.98
	C79.71,273.69,78.38,272.35,78.38,270.71"/>
<path class="st1" d="M68.74,270.71c0-1.64,1.33-2.98,2.98-2.98c1.64,0,2.98,1.33,2.98,2.98c0,1.64-1.33,2.98-2.98,2.98
	C70.07,273.69,68.74,272.35,68.74,270.71"/>
<path class="st1" d="M58.54,270.71c0-1.64,1.33-2.98,2.98-2.98c1.64,0,2.98,1.33,2.98,2.98c0,1.64-1.33,2.98-2.98,2.98
	C59.87,273.69,58.54,272.35,58.54,270.71"/>
<path class="st1" d="M48.9,270.71c0-1.64,1.33-2.98,2.98-2.98c1.64,0,2.98,1.33,2.98,2.98c0,1.64-1.33,2.98-2.98,2.98
	C50.23,273.69,48.9,272.35,48.9,270.71"/>
<path class="st1" d="M38.69,270.71c0-1.64,1.33-2.98,2.98-2.98c1.64,0,2.98,1.33,2.98,2.98c0,1.64-1.33,2.98-2.98,2.98
	C40.03,273.69,38.69,272.35,38.69,270.71"/>
<path class="st1" d="M29.06,270.71c0-1.64,1.33-2.98,2.98-2.98c1.64,0,2.98,1.33,2.98,2.98c0,1.64-1.33,2.98-2.98,2.98
	C30.39,273.69,29.06,272.35,29.06,270.71"/>
<path class="st1" d="M35.01,205.51c0,1.64-1.33,2.98-2.98,2.98c-1.64,0-2.98-1.33-2.98-2.98c0-1.64,1.33-2.98,2.98-2.98
	C33.68,202.54,35.01,203.87,35.01,205.51"/>
<path class="st1" d="M44.65,205.51c0,1.64-1.33,2.98-2.98,2.98c-1.64,0-2.98-1.33-2.98-2.98c0-1.64,1.33-2.98,2.98-2.98
	C43.31,202.54,44.65,203.87,44.65,205.51"/>
<path class="st1" d="M54.85,205.51c0,1.64-1.33,2.98-2.98,2.98c-1.64,0-2.98-1.33-2.98-2.98c0-1.64,1.33-2.98,2.98-2.98
	C53.52,202.54,54.85,203.87,54.85,205.51"/>
<path class="st1" d="M64.49,205.51c0,1.64-1.33,2.98-2.98,2.98c-1.64,0-2.98-1.33-2.98-2.98c0-1.64,1.33-2.98,2.98-2.98
	C63.16,202.54,64.49,203.87,64.49,205.51"/>
<path class="st1" d="M74.69,205.51c0,1.64-1.33,2.98-2.98,2.98c-1.64,0-2.98-1.33-2.98-2.98c0-1.64,1.33-2.98,2.98-2.98
	C73.36,202.54,74.69,203.87,74.69,205.51"/>
<path class="st1" d="M84.33,205.51c0,1.64-1.33,2.98-2.98,2.98c-1.64,0-2.98-1.33-2.98-2.98c0-1.64,1.33-2.98,2.98-2.98
	C83,202.54,84.33,203.87,84.33,205.51"/>
<path class="st1" d="M89.29,216.43c-1.64,0-2.98-1.33-2.98-2.98c0-1.64,1.33-2.98,2.98-2.98c1.64,0,2.98,1.33,2.98,2.98
	C92.27,215.09,90.94,216.43,89.29,216.43"/>
<path class="st1" d="M89.29,226.06c-1.64,0-2.98-1.33-2.98-2.98c0-1.64,1.33-2.98,2.98-2.98c1.64,0,2.98,1.33,2.98,2.98
	C92.27,224.73,90.94,226.06,89.29,226.06"/>
<path class="st1" d="M89.29,236.27c-1.64,0-2.98-1.33-2.98-2.98c0-1.64,1.33-2.98,2.98-2.98c1.64,0,2.98,1.33,2.98,2.98
	C92.27,234.94,90.94,236.27,89.29,236.27"/>
<path class="st1" d="M89.29,245.91c-1.64,0-2.98-1.33-2.98-2.98c0-1.64,1.33-2.98,2.98-2.98c1.64,0,2.98,1.33,2.98,2.98
	C92.27,244.57,90.94,245.91,89.29,245.91"/>
<path class="st1" d="M89.29,256.11c-1.64,0-2.98-1.33-2.98-2.98c0-1.64,1.33-2.98,2.98-2.98c1.64,0,2.98,1.33,2.98,2.98
	C92.27,254.78,90.94,256.11,89.29,256.11"/>
<path class="st1" d="M89.29,265.75c-1.64,0-2.98-1.33-2.98-2.98c0-1.64,1.33-2.98,2.98-2.98c1.64,0,2.98,1.33,2.98,2.98
	C92.27,264.42,90.94,265.75,89.29,265.75"/>
<path class="st1" d="M24.09,259.8c1.64,0,2.98,1.33,2.98,2.98c0,1.64-1.33,2.98-2.98,2.98c-1.64,0-2.98-1.33-2.98-2.98
	C21.12,261.13,22.45,259.8,24.09,259.8"/>
<path class="st1" d="M24.09,250.16c1.64,0,2.98,1.33,2.98,2.98c0,1.64-1.33,2.98-2.98,2.98c-1.64,0-2.98-1.33-2.98-2.98
	C21.12,251.49,22.45,250.16,24.09,250.16"/>
<path class="st1" d="M24.09,239.95c1.64,0,2.98,1.33,2.98,2.98c0,1.64-1.33,2.98-2.98,2.98c-1.64,0-2.98-1.33-2.98-2.98
	C21.12,241.29,22.45,239.95,24.09,239.95"/>
<path class="st1" d="M24.09,230.31c1.64,0,2.98,1.33,2.98,2.98c0,1.64-1.33,2.98-2.98,2.98c-1.64,0-2.98-1.33-2.98-2.98
	C21.12,231.65,22.45,230.31,24.09,230.31"/>
<path class="st1" d="M24.09,220.11c1.64,0,2.98,1.33,2.98,2.98c0,1.64-1.33,2.98-2.98,2.98c-1.64,0-2.98-1.33-2.98-2.98
	C21.12,221.44,22.45,220.11,24.09,220.11"/>
<path class="st1" d="M24.09,210.47c1.64,0,2.98,1.33,2.98,2.98c0,1.64-1.33,2.98-2.98,2.98c-1.64,0-2.98-1.33-2.98-2.98
	C21.12,211.8,22.45,210.47,24.09,210.47"/>
<rect x="50.31" y="232.44" transform="matrix(0.7071 0.7071 -0.7071 0.7071 184.9742 29.6529)" class="st1" width="12.76" height="11.34"/>
<polygon class="st0" points="17.01,558.43 17.01,571.18 14.17,571.18 14.17,591.02 17.01,591.02 17.01,610.87 14.17,610.87 
	14.17,630.71 17.01,630.71 17.01,643.46 26.93,643.46 26.93,632.13 46.77,632.13 66.61,632.13 86.46,632.13 86.46,643.46 
	96.38,643.46 96.38,630.71 99.21,630.71 99.21,610.87 96.38,610.87 96.38,591.02 99.21,591.02 99.21,571.18 96.38,571.18 
	96.38,558.43 86.46,558.43 86.46,569.76 66.61,569.76 46.1,569.76 26.93,569.76 26.93,558.43 "/>
<line class="st2" x1="99.21" y1="610.92" x2="84.19" y2="634.96"/>
<line class="st2" x1="96.38" y1="606.39" x2="78.52" y2="634.96"/>
<line class="st2" x1="96.38" y1="600.04" x2="74.55" y2="634.96"/>
<line class="st2" x1="99.21" y1="586.43" x2="68.88" y2="634.96"/>
<line class="st2" x1="84.19" y1="566.93" x2="66.61" y2="634.72"/>
<line class="st2" x1="78.52" y1="566.93" x2="60.88" y2="634.96"/>
<line class="st2" x1="74.55" y1="566.93" x2="56.91" y2="634.96"/>
<line class="st2" x1="68.88" y1="566.93" x2="51.24" y2="634.96"/>
<line class="st2" x1="62.14" y1="566.93" x2="44.5" y2="634.96"/>
<line class="st2" x1="56.47" y1="566.93" x2="38.83" y2="634.96"/>
<line class="st2" x1="52.5" y1="566.93" x2="34.87" y2="634.96"/>
<line class="st2" x1="46.77" y1="567.17" x2="29.2" y2="634.96"/>
<line class="st2" x1="29.2" y1="566.93" x2="14.17" y2="591.02"/>
<line class="st2" x1="34.87" y1="566.93" x2="17.01" y2="595.5"/>
<line class="st2" x1="38.83" y1="566.93" x2="17.01" y2="601.85"/>
<line class="st2" x1="44.5" y1="566.93" x2="14.17" y2="615.46"/>
<polygon class="st0" points="99.21,739.84 99.21,752.6 96.38,752.6 96.38,772.44 99.21,772.44 99.21,792.28 96.38,792.28 
	96.38,812.13 99.21,812.13 99.21,824.88 86.46,824.88 86.46,813.54 66.61,813.54 46.77,813.54 26.93,813.54 26.93,824.88 
	14.17,824.88 14.17,812.13 17.01,812.13 17.01,792.28 14.17,792.28 14.17,772.44 17.01,772.44 17.01,752.6 14.17,752.6 
	14.17,739.84 26.93,739.84 26.93,751.18 46.77,751.18 66.61,751.18 86.46,751.18 86.46,739.84 "/>
<line class="st2" x1="84.19" y1="748.35" x2="66.61" y2="816.2"/>
<line class="st2" x1="78.52" y1="748.35" x2="60.9" y2="816.38"/>
<line class="st2" x1="74.55" y1="748.35" x2="56.93" y2="816.38"/>
<line class="st2" x1="68.88" y1="748.35" x2="51.26" y2="816.38"/>
<line class="st2" x1="62.14" y1="748.35" x2="44.5" y2="816.38"/>
<line class="st2" x1="56.47" y1="748.35" x2="38.83" y2="816.38"/>
<line class="st2" x1="52.5" y1="748.35" x2="34.87" y2="816.38"/>
<line class="st2" x1="46.77" y1="748.59" x2="29.2" y2="816.38"/>
<line class="st2" x1="44.5" y1="748.35" x2="17.04" y2="792.28"/>
<line class="st2" x1="38.83" y1="748.35" x2="14.17" y2="787.8"/>
<line class="st2" x1="34.87" y1="748.35" x2="14.17" y2="781.46"/>
<line class="st2" x1="29.2" y1="748.35" x2="17.01" y2="767.85"/>
<line class="st2" x1="96.38" y1="772.44" x2="68.88" y2="816.38"/>
<line class="st2" x1="99.21" y1="776.92" x2="74.55" y2="816.38"/>
<line class="st2" x1="99.21" y1="783.27" x2="78.52" y2="816.38"/>
<line class="st2" x1="96.38" y1="796.88" x2="84.19" y2="816.38"/>
<polygon class="st0" points="17.01,649.13 17.01,661.89 14.17,661.89 14.17,681.73 17.01,681.73 17.01,701.57 14.17,701.57 
	14.17,721.42 17.01,721.42 17.01,734.17 26.93,734.17 26.93,722.83 46.77,722.83 66.61,722.83 86.46,722.83 86.46,734.17 
	96.38,734.17 96.38,721.42 99.21,721.42 99.21,701.57 96.38,701.57 96.38,681.73 99.21,681.73 99.21,661.89 96.38,661.89 
	96.38,649.13 86.46,649.13 86.46,660.47 66.61,660.47 46.1,660.47 26.93,660.47 26.93,649.13 "/>
<line class="st2" x1="99.21" y1="701.63" x2="84.19" y2="725.67"/>
<line class="st2" x1="96.38" y1="697.1" x2="78.52" y2="725.67"/>
<line class="st2" x1="96.38" y1="690.75" x2="74.55" y2="725.67"/>
<line class="st2" x1="99.21" y1="677.14" x2="68.88" y2="725.67"/>
<line class="st2" x1="84.19" y1="657.64" x2="66.61" y2="725.43"/>
<line class="st2" x1="78.52" y1="657.64" x2="60.88" y2="725.67"/>
<line class="st2" x1="74.55" y1="657.64" x2="56.91" y2="725.67"/>
<line class="st2" x1="68.88" y1="657.64" x2="51.24" y2="725.67"/>
<line class="st2" x1="62.14" y1="657.64" x2="44.5" y2="725.67"/>
<line class="st2" x1="56.47" y1="657.64" x2="38.83" y2="725.67"/>
<line class="st2" x1="52.5" y1="657.64" x2="34.87" y2="725.67"/>
<line class="st2" x1="46.77" y1="657.88" x2="29.2" y2="725.67"/>
<line class="st2" x1="29.2" y1="657.64" x2="14.17" y2="681.73"/>
<line class="st2" x1="34.87" y1="657.64" x2="17.01" y2="686.21"/>
<line class="st2" x1="38.83" y1="657.64" x2="17.01" y2="692.56"/>
<line class="st2" x1="44.5" y1="657.64" x2="14.17" y2="706.17"/>
<polygon class="st0" points="99.21,830.55 99.21,843.31 96.38,843.31 96.38,863.15 99.21,863.15 99.21,882.99 96.38,882.99 
	96.38,902.83 99.21,902.83 99.21,915.59 86.46,915.59 86.46,904.25 66.61,904.25 46.77,904.25 26.93,904.25 26.93,915.59 
	14.17,915.59 14.17,902.83 17.01,902.83 17.01,882.99 14.17,882.99 14.17,863.15 17.01,863.15 17.01,843.31 14.17,843.31 
	14.17,830.55 26.93,830.55 26.93,841.89 46.77,841.89 66.61,841.89 86.46,841.89 86.46,830.55 "/>
<line class="st2" x1="84.19" y1="839.06" x2="66.61" y2="906.91"/>
<line class="st2" x1="78.52" y1="839.06" x2="60.9" y2="907.09"/>
<line class="st2" x1="74.55" y1="839.06" x2="56.93" y2="907.09"/>
<line class="st2" x1="68.88" y1="839.06" x2="51.26" y2="907.09"/>
<line class="st2" x1="62.14" y1="839.06" x2="44.5" y2="907.09"/>
<line class="st2" x1="56.47" y1="839.06" x2="38.83" y2="907.09"/>
<line class="st2" x1="52.5" y1="839.06" x2="34.87" y2="907.09"/>
<line class="st2" x1="46.77" y1="839.3" x2="29.2" y2="907.09"/>
<line class="st2" x1="44.5" y1="839.06" x2="17.04" y2="882.99"/>
<line class="st2" x1="38.83" y1="839.06" x2="14.17" y2="878.51"/>
<line class="st2" x1="34.87" y1="839.06" x2="14.17" y2="872.16"/>
<line class="st2" x1="29.2" y1="839.06" x2="17.01" y2="858.56"/>
<line class="st2" x1="96.38" y1="863.15" x2="68.88" y2="907.09"/>
<line class="st2" x1="99.21" y1="867.63" x2="74.55" y2="907.09"/>
<line class="st2" x1="99.21" y1="873.98" x2="78.52" y2="907.09"/>
<line class="st2" x1="96.38" y1="887.58" x2="84.19" y2="907.09"/>
<polygon class="st0" points="96.38,1094.17 96.38,1084.25 99.21,1084.25 99.21,1064.41 99.21,1065.47 99.21,1045.63 99.21,1044.57 
	99.21,1024.72 96.38,1024.72 96.38,1014.8 86.46,1014.8 86.46,1011.97 66.61,1011.97 46.77,1011.97 26.93,1011.97 26.93,1014.8 
	17.01,1014.8 17.01,1024.72 14.17,1024.72 14.17,1044.57 14.17,1044.57 14.17,1064.41 14.17,1064.41 14.17,1084.25 17.01,1084.25 
	17.01,1094.17 26.93,1094.17 26.93,1097.01 46.77,1097.01 66.61,1097.01 86.46,1097.01 86.46,1094.17 "/>
<polygon class="st0" points="96.38,1003.46 96.38,993.54 99.21,993.54 99.21,973.7 99.21,974.77 99.21,954.92 99.21,953.86 
	99.21,934.02 96.38,934.02 96.38,924.09 86.46,924.09 86.46,921.26 66.61,921.26 46.77,921.26 26.93,921.26 26.93,924.09 
	17.01,924.09 17.01,934.02 14.17,934.02 14.17,953.86 14.17,953.86 14.17,973.7 14.17,973.7 14.17,993.54 17.01,993.54 
	17.01,1003.46 26.93,1003.46 26.93,1006.3 46.77,1006.3 66.61,1006.3 86.46,1006.3 86.46,1003.46 "/>
<rect x="50.31" y="51.02" transform="matrix(-0.7071 -0.7071 0.7071 -0.7071 56.6929 136.8688)" class="st1" width="12.76" height="11.34"/>
<polygon class="st0" points="17.01,17.01 17.01,26.93 14.17,26.93 14.17,46.77 14.17,45.71 14.17,65.55 14.17,66.61 14.17,86.46 
	17.01,86.46 17.01,96.38 26.93,96.38 26.93,99.21 46.77,99.21 66.61,99.21 86.46,99.21 86.46,96.38 96.38,96.38 96.38,86.46 
	99.21,86.46 99.21,66.61 99.21,66.61 99.21,46.77 99.21,46.77 99.21,26.93 96.38,26.93 96.38,17.01 86.46,17.01 86.46,14.17 
	66.61,14.17 46.77,14.17 26.93,14.17 26.93,17.01 "/>
<path class="st1" d="M36.43,24.09c0,2.43-1.97,4.39-4.39,4.39c-2.43,0-4.39-1.97-4.39-4.39c0-2.43,1.97-4.39,4.39-4.39
	C34.46,19.7,36.43,21.67,36.43,24.09"/>
<path class="st1" d="M46.06,24.09c0,2.43-1.97,4.39-4.39,4.39c-2.43,0-4.39-1.97-4.39-4.39c0-2.43,1.97-4.39,4.39-4.39
	C44.1,19.7,46.06,21.67,46.06,24.09"/>
<path class="st1" d="M56.27,24.09c0,2.43-1.97,4.39-4.39,4.39c-2.43,0-4.39-1.97-4.39-4.39c0-2.43,1.97-4.39,4.39-4.39
	C54.3,19.7,56.27,21.67,56.27,24.09"/>
<path class="st1" d="M65.91,24.09c0,2.43-1.97,4.39-4.39,4.39c-2.43,0-4.39-1.97-4.39-4.39c0-2.43,1.97-4.39,4.39-4.39
	C63.94,19.7,65.91,21.67,65.91,24.09"/>
<path class="st1" d="M76.11,24.09c0,2.43-1.97,4.39-4.39,4.39c-2.43,0-4.39-1.97-4.39-4.39c0-2.43,1.97-4.39,4.39-4.39
	C74.14,19.7,76.11,21.67,76.11,24.09"/>
<path class="st1" d="M85.75,24.09c0,2.43-1.97,4.39-4.39,4.39c-2.43,0-4.39-1.97-4.39-4.39c0-2.43,1.97-4.39,4.39-4.39
	C83.78,19.7,85.75,21.67,85.75,24.09"/>
<path class="st1" d="M76.96,89.29c0-2.43,1.97-4.39,4.39-4.39c2.43,0,4.39,1.97,4.39,4.39c0,2.43-1.97,4.39-4.39,4.39
	C78.93,93.69,76.96,91.72,76.96,89.29"/>
<path class="st1" d="M67.32,89.29c0-2.43,1.97-4.39,4.39-4.39c2.43,0,4.39,1.97,4.39,4.39c0,2.43-1.97,4.39-4.39,4.39
	C69.29,93.69,67.32,91.72,67.32,89.29"/>
<path class="st1" d="M57.12,89.29c0-2.43,1.97-4.39,4.39-4.39c2.43,0,4.39,1.97,4.39,4.39c0,2.43-1.97,4.39-4.39,4.39
	C59.09,93.69,57.12,91.72,57.12,89.29"/>
<path class="st1" d="M47.48,89.29c0-2.43,1.97-4.39,4.39-4.39c2.43,0,4.39,1.97,4.39,4.39c0,2.43-1.97,4.39-4.39,4.39
	C49.45,93.69,47.48,91.72,47.48,89.29"/>
<path class="st1" d="M37.28,89.29c0-2.43,1.97-4.39,4.39-4.39c2.43,0,4.39,1.97,4.39,4.39c0,2.43-1.97,4.39-4.39,4.39
	C39.24,93.69,37.28,91.72,37.28,89.29"/>
<path class="st1" d="M27.64,89.29c0-2.43,1.97-4.39,4.39-4.39c2.43,0,4.39,1.97,4.39,4.39c0,2.43-1.97,4.39-4.39,4.39
	C29.61,93.69,27.64,91.72,27.64,89.29"/>
<path class="st1" d="M24.09,76.96c2.43,0,4.39,1.97,4.39,4.39c0,2.43-1.97,4.39-4.39,4.39c-2.43,0-4.39-1.97-4.39-4.39
	C19.7,78.93,21.67,76.96,24.09,76.96"/>
<path class="st1" d="M24.09,67.32c2.43,0,4.39,1.97,4.39,4.39c0,2.43-1.97,4.39-4.39,4.39c-2.43,0-4.39-1.97-4.39-4.39
	C19.7,69.29,21.67,67.32,24.09,67.32"/>
<path class="st1" d="M24.09,57.12c2.43,0,4.39,1.97,4.39,4.39c0,2.43-1.97,4.39-4.39,4.39c-2.43,0-4.39-1.97-4.39-4.39
	C19.7,59.09,21.67,57.12,24.09,57.12"/>
<path class="st1" d="M24.09,47.48c2.43,0,4.39,1.97,4.39,4.39c0,2.43-1.97,4.39-4.39,4.39c-2.43,0-4.39-1.97-4.39-4.39
	C19.7,49.45,21.67,47.48,24.09,47.48"/>
<path class="st1" d="M24.09,37.28c2.43,0,4.39,1.97,4.39,4.39c0,2.43-1.97,4.39-4.39,4.39c-2.43,0-4.39-1.97-4.39-4.39
	C19.7,39.24,21.67,37.28,24.09,37.28"/>
<path class="st1" d="M24.09,27.64c2.43,0,4.39,1.97,4.39,4.39c0,2.43-1.97,4.39-4.39,4.39c-2.43,0-4.39-1.97-4.39-4.39
	C19.7,29.61,21.67,27.64,24.09,27.64"/>
<path class="st1" d="M89.29,36.43c-2.43,0-4.39-1.97-4.39-4.39c0-2.43,1.97-4.39,4.39-4.39c2.43,0,4.39,1.97,4.39,4.39
	C93.69,34.46,91.72,36.43,89.29,36.43"/>
<path class="st1" d="M89.29,46.06c-2.43,0-4.39-1.97-4.39-4.39c0-2.43,1.97-4.39,4.39-4.39c2.43,0,4.39,1.97,4.39,4.39
	C93.69,44.1,91.72,46.06,89.29,46.06"/>
<path class="st1" d="M89.29,56.27c-2.43,0-4.39-1.97-4.39-4.39c0-2.43,1.97-4.39,4.39-4.39c2.43,0,4.39,1.97,4.39,4.39
	C93.69,54.3,91.72,56.27,89.29,56.27"/>
<path class="st1" d="M89.29,65.91c-2.43,0-4.39-1.97-4.39-4.39c0-2.43,1.97-4.39,4.39-4.39c2.43,0,4.39,1.97,4.39,4.39
	C93.69,63.94,91.72,65.91,89.29,65.91"/>
<path class="st1" d="M89.29,76.11c-2.43,0-4.39-1.97-4.39-4.39c0-2.43,1.97-4.39,4.39-4.39c2.43,0,4.39,1.97,4.39,4.39
	C93.69,74.14,91.72,76.11,89.29,76.11"/>
<path class="st1" d="M89.29,85.75c-2.43,0-4.39-1.97-4.39-4.39c0-2.43,1.97-4.39,4.39-4.39c2.43,0,4.39,1.97,4.39,4.39
	C93.69,83.78,91.72,85.75,89.29,85.75"/>
<rect x="50.31" y="141.73" transform="matrix(-0.7071 -0.7071 0.7071 -0.7071 -7.4478 291.7182)" class="st1" width="12.76" height="11.34"/>
<polygon class="st0" points="17.01,107.72 17.01,117.64 14.17,117.64 14.17,137.48 14.17,136.42 14.17,156.26 14.17,157.32 
	14.17,177.17 17.01,177.17 17.01,187.09 26.93,187.09 26.93,189.92 46.77,189.92 66.61,189.92 86.46,189.92 86.46,187.09 
	96.38,187.09 96.38,177.17 99.21,177.17 99.21,157.32 99.21,157.32 99.21,137.48 99.21,137.48 99.21,117.64 96.38,117.64 
	96.38,107.72 86.46,107.72 86.46,104.88 66.61,104.88 46.77,104.88 26.93,104.88 26.93,107.72 "/>
<path class="st1" d="M36.43,114.8c0,2.43-1.97,4.39-4.39,4.39c-2.43,0-4.39-1.97-4.39-4.39c0-2.43,1.97-4.39,4.39-4.39
	C34.46,110.41,36.43,112.38,36.43,114.8"/>
<path class="st1" d="M46.06,114.8c0,2.43-1.97,4.39-4.39,4.39c-2.43,0-4.39-1.97-4.39-4.39c0-2.43,1.97-4.39,4.39-4.39
	C44.1,110.41,46.06,112.38,46.06,114.8"/>
<path class="st1" d="M56.27,114.8c0,2.43-1.97,4.39-4.39,4.39c-2.43,0-4.39-1.97-4.39-4.39c0-2.43,1.97-4.39,4.39-4.39
	C54.3,110.41,56.27,112.38,56.27,114.8"/>
<path class="st1" d="M65.91,114.8c0,2.43-1.97,4.39-4.39,4.39c-2.43,0-4.39-1.97-4.39-4.39c0-2.43,1.97-4.39,4.39-4.39
	C63.94,110.41,65.91,112.38,65.91,114.8"/>
<path class="st1" d="M76.11,114.8c0,2.43-1.97,4.39-4.39,4.39c-2.43,0-4.39-1.97-4.39-4.39c0-2.43,1.97-4.39,4.39-4.39
	C74.14,110.41,76.11,112.38,76.11,114.8"/>
<path class="st1" d="M85.75,114.8c0,2.43-1.97,4.39-4.39,4.39c-2.43,0-4.39-1.97-4.39-4.39c0-2.43,1.97-4.39,4.39-4.39
	C83.78,110.41,85.75,112.38,85.75,114.8"/>
<path class="st1" d="M76.96,180c0-2.43,1.97-4.39,4.39-4.39c2.43,0,4.39,1.97,4.39,4.39c0,2.43-1.97,4.39-4.39,4.39
	C78.93,184.39,76.96,182.43,76.96,180"/>
<path class="st1" d="M67.32,180c0-2.43,1.97-4.39,4.39-4.39c2.43,0,4.39,1.97,4.39,4.39c0,2.43-1.97,4.39-4.39,4.39
	C69.29,184.39,67.32,182.43,67.32,180"/>
<path class="st1" d="M57.12,180c0-2.43,1.97-4.39,4.39-4.39c2.43,0,4.39,1.97,4.39,4.39c0,2.43-1.97,4.39-4.39,4.39
	C59.09,184.39,57.12,182.43,57.12,180"/>
<path class="st1" d="M47.48,180c0-2.43,1.97-4.39,4.39-4.39c2.43,0,4.39,1.97,4.39,4.39c0,2.43-1.97,4.39-4.39,4.39
	C49.45,184.39,47.48,182.43,47.48,180"/>
<path class="st1" d="M37.28,180c0-2.43,1.97-4.39,4.39-4.39c2.43,0,4.39,1.97,4.39,4.39c0,2.43-1.97,4.39-4.39,4.39
	C39.24,184.39,37.28,182.43,37.28,180"/>
<path class="st1" d="M27.64,180c0-2.43,1.97-4.39,4.39-4.39c2.43,0,4.39,1.97,4.39,4.39c0,2.43-1.97,4.39-4.39,4.39
	C29.61,184.39,27.64,182.43,27.64,180"/>
<path class="st1" d="M24.09,167.67c2.43,0,4.39,1.97,4.39,4.39c0,2.43-1.97,4.39-4.39,4.39c-2.43,0-4.39-1.97-4.39-4.39
	C19.7,169.64,21.67,167.67,24.09,167.67"/>
<path class="st1" d="M24.09,158.03c2.43,0,4.39,1.97,4.39,4.39c0,2.43-1.97,4.39-4.39,4.39c-2.43,0-4.39-1.97-4.39-4.39
	C19.7,160,21.67,158.03,24.09,158.03"/>
<path class="st1" d="M24.09,147.83c2.43,0,4.39,1.97,4.39,4.39c0,2.43-1.97,4.39-4.39,4.39c-2.43,0-4.39-1.97-4.39-4.39
	C19.7,149.79,21.67,147.83,24.09,147.83"/>
<path class="st1" d="M24.09,138.19c2.43,0,4.39,1.97,4.39,4.39c0,2.43-1.97,4.39-4.39,4.39c-2.43,0-4.39-1.97-4.39-4.39
	C19.7,140.16,21.67,138.19,24.09,138.19"/>
<path class="st1" d="M24.09,127.98c2.43,0,4.39,1.97,4.39,4.39c0,2.43-1.97,4.39-4.39,4.39c-2.43,0-4.39-1.97-4.39-4.39
	C19.7,129.95,21.67,127.98,24.09,127.98"/>
<path class="st1" d="M24.09,118.35c2.43,0,4.39,1.97,4.39,4.39c0,2.43-1.97,4.39-4.39,4.39c-2.43,0-4.39-1.97-4.39-4.39
	C19.7,120.31,21.67,118.35,24.09,118.35"/>
<path class="st1" d="M89.29,127.13c-2.43,0-4.39-1.97-4.39-4.39c0-2.43,1.97-4.39,4.39-4.39c2.43,0,4.39,1.97,4.39,4.39
	C93.69,125.17,91.72,127.13,89.29,127.13"/>
<path class="st1" d="M89.29,136.77c-2.43,0-4.39-1.97-4.39-4.39c0-2.43,1.97-4.39,4.39-4.39c2.43,0,4.39,1.97,4.39,4.39
	C93.69,134.8,91.72,136.77,89.29,136.77"/>
<path class="st1" d="M89.29,146.98c-2.43,0-4.39-1.97-4.39-4.39c0-2.43,1.97-4.39,4.39-4.39c2.43,0,4.39,1.97,4.39,4.39
	C93.69,145.01,91.72,146.98,89.29,146.98"/>
<path class="st1" d="M89.29,156.61c-2.43,0-4.39-1.97-4.39-4.39c0-2.43,1.97-4.39,4.39-4.39c2.43,0,4.39,1.97,4.39,4.39
	C93.69,154.65,91.72,156.61,89.29,156.61"/>
<path class="st1" d="M89.29,166.82c-2.43,0-4.39-1.97-4.39-4.39c0-2.43,1.97-4.39,4.39-4.39c2.43,0,4.39,1.97,4.39,4.39
	C93.69,164.85,91.72,166.82,89.29,166.82"/>
<path class="st1" d="M89.29,176.46c-2.43,0-4.39-1.97-4.39-4.39c0-2.43,1.97-4.39,4.39-4.39c2.43,0,4.39,1.97,4.39,4.39
	C93.69,174.49,91.72,176.46,89.29,176.46"/>
<polygon class="st0" points="17.01,289.13 17.01,299.06 14.17,299.06 14.17,318.9 14.17,317.83 14.17,337.67 14.17,338.74 
	14.17,358.58 17.01,358.58 17.01,368.5 26.93,368.5 26.93,371.34 46.77,371.34 66.61,371.34 86.46,371.34 86.46,368.5 96.38,368.5 
	96.38,358.58 99.21,358.58 99.21,338.74 99.21,338.74 99.21,318.9 99.21,318.9 99.21,299.06 96.38,299.06 96.38,289.13 
	86.46,289.13 86.46,286.3 66.61,286.3 46.77,286.3 26.93,286.3 26.93,289.13 "/>
<path class="st1" d="M36.43,296.22c0,2.43-1.97,4.39-4.39,4.39c-2.43,0-4.39-1.97-4.39-4.39c0-2.43,1.97-4.39,4.39-4.39
	C34.46,291.83,36.43,293.79,36.43,296.22"/>
<path class="st1" d="M46.06,296.22c0,2.43-1.97,4.39-4.39,4.39c-2.43,0-4.39-1.97-4.39-4.39c0-2.43,1.97-4.39,4.39-4.39
	C44.1,291.83,46.06,293.79,46.06,296.22"/>
<path class="st1" d="M56.27,296.22c0,2.43-1.97,4.39-4.39,4.39c-2.43,0-4.39-1.97-4.39-4.39c0-2.43,1.97-4.39,4.39-4.39
	C54.3,291.83,56.27,293.79,56.27,296.22"/>
<path class="st1" d="M65.91,296.22c0,2.43-1.97,4.39-4.39,4.39c-2.43,0-4.39-1.97-4.39-4.39c0-2.43,1.97-4.39,4.39-4.39
	C63.94,291.83,65.91,293.79,65.91,296.22"/>
<path class="st1" d="M76.11,296.22c0,2.43-1.97,4.39-4.39,4.39c-2.43,0-4.39-1.97-4.39-4.39c0-2.43,1.97-4.39,4.39-4.39
	C74.14,291.83,76.11,293.79,76.11,296.22"/>
<path class="st1" d="M85.75,296.22c0,2.43-1.97,4.39-4.39,4.39c-2.43,0-4.39-1.97-4.39-4.39c0-2.43,1.97-4.39,4.39-4.39
	C83.78,291.83,85.75,293.79,85.75,296.22"/>
<path class="st1" d="M76.96,361.42c0-2.43,1.97-4.39,4.39-4.39c2.43,0,4.39,1.97,4.39,4.39c0,2.43-1.97,4.39-4.39,4.39
	C78.93,365.81,76.96,363.84,76.96,361.42"/>
<path class="st1" d="M67.32,361.42c0-2.43,1.97-4.39,4.39-4.39c2.43,0,4.39,1.97,4.39,4.39c0,2.43-1.97,4.39-4.39,4.39
	C69.29,365.81,67.32,363.84,67.32,361.42"/>
<path class="st1" d="M57.12,361.42c0-2.43,1.97-4.39,4.39-4.39c2.43,0,4.39,1.97,4.39,4.39c0,2.43-1.97,4.39-4.39,4.39
	C59.09,365.81,57.12,363.84,57.12,361.42"/>
<path class="st1" d="M47.48,361.42c0-2.43,1.97-4.39,4.39-4.39c2.43,0,4.39,1.97,4.39,4.39c0,2.43-1.97,4.39-4.39,4.39
	C49.45,365.81,47.48,363.84,47.48,361.42"/>
<path class="st1" d="M37.28,361.42c0-2.43,1.97-4.39,4.39-4.39c2.43,0,4.39,1.97,4.39,4.39c0,2.43-1.97,4.39-4.39,4.39
	C39.24,365.81,37.28,363.84,37.28,361.42"/>
<path class="st1" d="M27.64,361.42c0-2.43,1.97-4.39,4.39-4.39c2.43,0,4.39,1.97,4.39,4.39c0,2.43-1.97,4.39-4.39,4.39
	C29.61,365.81,27.64,363.84,27.64,361.42"/>
<path class="st1" d="M24.09,349.09c2.43,0,4.39,1.97,4.39,4.39c0,2.43-1.97,4.39-4.39,4.39c-2.43,0-4.39-1.97-4.39-4.39
	C19.7,351.05,21.67,349.09,24.09,349.09"/>
<path class="st1" d="M24.09,339.45c2.43,0,4.39,1.97,4.39,4.39c0,2.43-1.97,4.39-4.39,4.39c-2.43,0-4.39-1.97-4.39-4.39
	C19.7,341.42,21.67,339.45,24.09,339.45"/>
<path class="st1" d="M24.09,329.24c2.43,0,4.39,1.97,4.39,4.39c0,2.43-1.97,4.39-4.39,4.39c-2.43,0-4.39-1.97-4.39-4.39
	C19.7,331.21,21.67,329.24,24.09,329.24"/>
<path class="st1" d="M24.09,319.61c2.43,0,4.39,1.97,4.39,4.39c0,2.43-1.97,4.39-4.39,4.39c-2.43,0-4.39-1.97-4.39-4.39
	C19.7,321.57,21.67,319.61,24.09,319.61"/>
<path class="st1" d="M24.09,309.4c2.43,0,4.39,1.97,4.39,4.39c0,2.43-1.97,4.39-4.39,4.39c-2.43,0-4.39-1.97-4.39-4.39
	C19.7,311.37,21.67,309.4,24.09,309.4"/>
<path class="st1" d="M24.09,299.76c2.43,0,4.39,1.97,4.39,4.39c0,2.43-1.97,4.39-4.39,4.39c-2.43,0-4.39-1.97-4.39-4.39
	C19.7,301.73,21.67,299.76,24.09,299.76"/>
<path class="st1" d="M89.29,308.55c-2.43,0-4.39-1.97-4.39-4.39c0-2.43,1.97-4.39,4.39-4.39c2.43,0,4.39,1.97,4.39,4.39
	C93.69,306.58,91.72,308.55,89.29,308.55"/>
<path class="st1" d="M89.29,318.19c-2.43,0-4.39-1.97-4.39-4.39c0-2.43,1.97-4.39,4.39-4.39c2.43,0,4.39,1.97,4.39,4.39
	C93.69,316.22,91.72,318.19,89.29,318.19"/>
<path class="st1" d="M89.29,328.39c-2.43,0-4.39-1.97-4.39-4.39c0-2.43,1.97-4.39,4.39-4.39c2.43,0,4.39,1.97,4.39,4.39
	C93.69,326.43,91.72,328.39,89.29,328.39"/>
<path class="st1" d="M89.29,338.03c-2.43,0-4.39-1.97-4.39-4.39c0-2.43,1.97-4.39,4.39-4.39c2.43,0,4.39,1.97,4.39,4.39
	C93.69,336.06,91.72,338.03,89.29,338.03"/>
<path class="st1" d="M89.29,348.24c-2.43,0-4.39-1.97-4.39-4.39c0-2.43,1.97-4.39,4.39-4.39c2.43,0,4.39,1.97,4.39,4.39
	C93.69,346.27,91.72,348.24,89.29,348.24"/>
<path class="st1" d="M89.29,357.87c-2.43,0-4.39-1.97-4.39-4.39c0-2.43,1.97-4.39,4.39-4.39c2.43,0,4.39,1.97,4.39,4.39
	C93.69,355.91,91.72,357.87,89.29,357.87"/>
<polygon class="st0" points="17.01,379.84 17.01,389.76 14.17,389.76 14.17,409.61 14.17,408.54 14.17,428.38 14.17,429.45 
	14.17,449.29 17.01,449.29 17.01,459.21 26.93,459.21 26.93,462.05 46.77,462.05 66.61,462.05 86.46,462.05 86.46,459.21 
	96.38,459.21 96.38,449.29 99.21,449.29 99.21,429.45 99.21,429.45 99.21,409.61 99.21,409.61 99.21,389.76 96.38,389.76 
	96.38,379.84 86.46,379.84 86.46,377.01 66.61,377.01 46.77,377.01 26.93,377.01 26.93,379.84 "/>
<path class="st1" d="M36.43,386.93c0,2.43-1.97,4.39-4.39,4.39c-2.43,0-4.39-1.97-4.39-4.39c0-2.43,1.97-4.39,4.39-4.39
	C34.46,382.54,36.43,384.5,36.43,386.93"/>
<path class="st1" d="M46.06,386.93c0,2.43-1.97,4.39-4.39,4.39c-2.43,0-4.39-1.97-4.39-4.39c0-2.43,1.97-4.39,4.39-4.39
	C44.1,382.54,46.06,384.5,46.06,386.93"/>
<path class="st1" d="M56.27,386.93c0,2.43-1.97,4.39-4.39,4.39c-2.43,0-4.39-1.97-4.39-4.39c0-2.43,1.97-4.39,4.39-4.39
	C54.3,382.54,56.27,384.5,56.27,386.93"/>
<path class="st1" d="M65.91,386.93c0,2.43-1.97,4.39-4.39,4.39c-2.43,0-4.39-1.97-4.39-4.39c0-2.43,1.97-4.39,4.39-4.39
	C63.94,382.54,65.91,384.5,65.91,386.93"/>
<path class="st1" d="M76.11,386.93c0,2.43-1.97,4.39-4.39,4.39c-2.43,0-4.39-1.97-4.39-4.39c0-2.43,1.97-4.39,4.39-4.39
	C74.14,382.54,76.11,384.5,76.11,386.93"/>
<path class="st1" d="M85.75,386.93c0,2.43-1.97,4.39-4.39,4.39c-2.43,0-4.39-1.97-4.39-4.39c0-2.43,1.97-4.39,4.39-4.39
	C83.78,382.54,85.75,384.5,85.75,386.93"/>
<path class="st1" d="M76.96,452.13c0-2.43,1.97-4.39,4.39-4.39c2.43,0,4.39,1.97,4.39,4.39c0,2.43-1.97,4.39-4.39,4.39
	C78.93,456.52,76.96,454.55,76.96,452.13"/>
<path class="st1" d="M67.32,452.13c0-2.43,1.97-4.39,4.39-4.39c2.43,0,4.39,1.97,4.39,4.39c0,2.43-1.97,4.39-4.39,4.39
	C69.29,456.52,67.32,454.55,67.32,452.13"/>
<path class="st1" d="M57.12,452.13c0-2.43,1.97-4.39,4.39-4.39c2.43,0,4.39,1.97,4.39,4.39c0,2.43-1.97,4.39-4.39,4.39
	C59.09,456.52,57.12,454.55,57.12,452.13"/>
<path class="st1" d="M47.48,452.13c0-2.43,1.97-4.39,4.39-4.39c2.43,0,4.39,1.97,4.39,4.39c0,2.43-1.97,4.39-4.39,4.39
	C49.45,456.52,47.48,454.55,47.48,452.13"/>
<path class="st1" d="M37.28,452.13c0-2.43,1.97-4.39,4.39-4.39c2.43,0,4.39,1.97,4.39,4.39c0,2.43-1.97,4.39-4.39,4.39
	C39.24,456.52,37.28,454.55,37.28,452.13"/>
<path class="st1" d="M27.64,452.13c0-2.43,1.97-4.39,4.39-4.39c2.43,0,4.39,1.97,4.39,4.39c0,2.43-1.97,4.39-4.39,4.39
	C29.61,456.52,27.64,454.55,27.64,452.13"/>
<path class="st1" d="M24.09,439.8c2.43,0,4.39,1.97,4.39,4.39c0,2.43-1.97,4.39-4.39,4.39c-2.43,0-4.39-1.97-4.39-4.39
	C19.7,441.76,21.67,439.8,24.09,439.8"/>
<path class="st1" d="M24.09,430.16c2.43,0,4.39,1.97,4.39,4.39c0,2.43-1.97,4.39-4.39,4.39c-2.43,0-4.39-1.97-4.39-4.39
	C19.7,432.12,21.67,430.16,24.09,430.16"/>
<path class="st1" d="M24.09,419.95c2.43,0,4.39,1.97,4.39,4.39c0,2.43-1.97,4.39-4.39,4.39c-2.43,0-4.39-1.97-4.39-4.39
	C19.7,421.92,21.67,419.95,24.09,419.95"/>
<path class="st1" d="M24.09,410.31c2.43,0,4.39,1.97,4.39,4.39c0,2.43-1.97,4.39-4.39,4.39c-2.43,0-4.39-1.97-4.39-4.39
	C19.7,412.28,21.67,410.31,24.09,410.31"/>
<path class="st1" d="M24.09,400.11c2.43,0,4.39,1.97,4.39,4.39c0,2.43-1.97,4.39-4.39,4.39c-2.43,0-4.39-1.97-4.39-4.39
	C19.7,402.08,21.67,400.11,24.09,400.11"/>
<path class="st1" d="M24.09,390.47c2.43,0,4.39,1.97,4.39,4.39c0,2.43-1.97,4.39-4.39,4.39c-2.43,0-4.39-1.97-4.39-4.39
	C19.7,392.44,21.67,390.47,24.09,390.47"/>
<path class="st1" d="M89.29,399.26c-2.43,0-4.39-1.97-4.39-4.39c0-2.43,1.97-4.39,4.39-4.39c2.43,0,4.39,1.97,4.39,4.39
	C93.69,397.29,91.72,399.26,89.29,399.26"/>
<path class="st1" d="M89.29,408.9c-2.43,0-4.39-1.97-4.39-4.39c0-2.43,1.97-4.39,4.39-4.39c2.43,0,4.39,1.97,4.39,4.39
	C93.69,406.93,91.72,408.9,89.29,408.9"/>
<path class="st1" d="M89.29,419.1c-2.43,0-4.39-1.97-4.39-4.39c0-2.43,1.97-4.39,4.39-4.39c2.43,0,4.39,1.97,4.39,4.39
	C93.69,417.14,91.72,419.1,89.29,419.1"/>
<path class="st1" d="M89.29,428.74c-2.43,0-4.39-1.97-4.39-4.39c0-2.43,1.97-4.39,4.39-4.39c2.43,0,4.39,1.97,4.39,4.39
	C93.69,426.77,91.72,428.74,89.29,428.74"/>
<path class="st1" d="M89.29,438.94c-2.43,0-4.39-1.97-4.39-4.39c0-2.43,1.97-4.39,4.39-4.39c2.43,0,4.39,1.97,4.39,4.39
	C93.69,436.98,91.72,438.94,89.29,438.94"/>
<path class="st1" d="M89.29,448.58c-2.43,0-4.39-1.97-4.39-4.39c0-2.43,1.97-4.39,4.39-4.39c2.43,0,4.39,1.97,4.39,4.39
	C93.69,446.62,91.72,448.58,89.29,448.58"/>
</svg>
