<?xml version="1.0" encoding="utf-8"?>
<!-- Generator: Adobe Illustrator 26.5.0, SVG Export Plug-In . SVG Version: 6.00 Build 0)  -->
<svg version="1.1" id="圖層_1" xmlns="http://www.w3.org/2000/svg" xmlns:xlink="http://www.w3.org/1999/xlink" x="0px" y="0px"
	 viewBox="0 0 595.28 841.89" style="enable-background:new 0 0 595.28 841.89;" xml:space="preserve">
<style type="text/css">
	.st0{fill-rule:evenodd;clip-rule:evenodd;fill:#040000;stroke:#040000;stroke-width:0.216;}
	.st1{fill:none;stroke:#040000;stroke-width:0.216;}
	.st2{fill-rule:evenodd;clip-rule:evenodd;fill:#18499E;stroke:#040000;stroke-width:0.216;}
	.st3{fill-rule:evenodd;clip-rule:evenodd;fill:#EFEA3C;stroke:#040000;stroke-width:0.216;}
</style>
<path id="path8" class="st0" d="M19.84,36.85l17.62,68.03"/>
<path id="path10" class="st0" d="M25.51,36.85l17.62,68.03"/>
<path id="path12" class="st0" d="M29.48,36.85l17.62,68.03"/>
<path id="path14" class="st0" d="M35.15,36.85l17.62,68.03"/>
<path id="path16" class="st0" d="M41.89,36.85l17.64,68.03"/>
<path id="path18" class="st0" d="M47.56,36.85l17.64,68.03"/>
<path id="path20" class="st0" d="M51.53,36.85l17.64,68.03"/>
<path id="path22" class="st0" d="M57.2,36.85l17.64,68.03"/>
<path id="path24" class="st0" d="M104.88,36.85l17.64,68.03"/>
<path id="path26" class="st0" d="M110.55,36.85l17.64,68.03"/>
<path id="path28" class="st0" d="M114.52,36.85l17.64,68.03"/>
<path id="path30" class="st0" d="M120.19,36.85l17.64,68.03"/>
<path id="path32" class="st0" d="M126.93,36.85l17.64,68.03"/>
<path id="path34" class="st0" d="M132.6,36.85l17.64,68.03"/>
<path id="path36" class="st0" d="M136.57,36.85l17.64,68.03"/>
<path id="path38" class="st0" d="M142.24,36.85l17.64,68.03"/>
<path id="path40" class="st0" d="M189.92,36.85l17.62,68.03"/>
<path id="path42" class="st0" d="M195.59,36.85l17.62,68.03"/>
<path id="path44" class="st0" d="M199.56,36.85l17.62,68.03"/>
<path id="path46" class="st0" d="M205.23,36.85l17.62,68.03"/>
<path id="path48" class="st0" d="M211.97,36.85l17.64,68.03"/>
<path id="path50" class="st0" d="M217.64,36.85l17.64,68.03"/>
<path id="path52" class="st0" d="M221.61,36.85l17.64,68.03"/>
<path id="path54" class="st0" d="M227.28,36.85l17.64,68.03"/>
<path id="path56" class="st0" d="M274.96,36.85l17.64,68.03"/>
<path id="path58" class="st0" d="M280.63,36.85l17.64,68.03"/>
<path id="path60" class="st0" d="M284.6,36.85l17.64,68.03"/>
<path id="path62" class="st0" d="M290.27,36.85l17.64,68.03"/>
<path id="path64" class="st0" d="M297.01,36.85l17.64,68.03"/>
<path id="path66" class="st0" d="M302.68,36.85l17.64,68.03"/>
<path id="path68" class="st0" d="M306.65,36.85l17.64,68.03"/>
<path id="path70" class="st0" d="M312.32,36.85l17.64,68.03"/>
<path id="path72" class="st1" d="M59.53,36.85l45.35,68.03"/>
<path id="path74" class="st1" d="M65.2,36.85l45.35,68.03"/>
<path id="path76" class="st1" d="M69.17,36.85l45.35,68.03"/>
<path id="path78" class="st1" d="M74.83,36.85l45.35,68.03"/>
<path id="path80" class="st1" d="M144.57,36.85l45.35,68.03"/>
<path id="path82" class="st1" d="M150.24,36.85l45.35,68.03"/>
<path id="path84" class="st1" d="M154.2,36.85l45.35,68.03"/>
<path id="path86" class="st1" d="M159.87,36.85l45.35,68.03"/>
<path id="path88" class="st1" d="M229.61,36.85l45.35,68.03"/>
<path id="path90" class="st1" d="M235.28,36.85l45.35,68.03"/>
<path id="path92" class="st1" d="M239.24,36.85l45.35,68.03"/>
<path id="path94" class="st1" d="M244.91,36.85l45.35,68.03"/>
<path id="path96" class="st1" d="M314.65,36.85L360,104.88"/>
<path id="path98" class="st1" d="M320.31,36.85l45.35,68.03"/>
<path id="path100" class="st1" d="M324.28,36.85l45.35,68.03"/>
<path id="path102" class="st1" d="M329.95,36.85l45.35,68.03"/>
<path id="path104" class="st1" d="M329.95,19.84v17.01"/>
<path id="path106" class="st1" d="M324.28,19.84v17.01"/>
<path id="path108" class="st1" d="M320.31,19.84v17.01"/>
<path id="path110" class="st1" d="M314.65,19.84v17.01"/>
<path id="path112" class="st1" d="M312.32,19.84v17.01"/>
<path id="path114" class="st1" d="M306.65,19.84v17.01"/>
<path id="path116" class="st1" d="M302.68,19.84v17.01"/>
<path id="path118" class="st1" d="M297.01,19.84v17.01"/>
<path id="path120" class="st1" d="M290.27,19.84v17.01"/>
<path id="path122" class="st1" d="M284.6,19.84v17.01"/>
<path id="path124" class="st1" d="M280.63,19.84v17.01"/>
<path id="path126" class="st1" d="M274.96,19.84v17.01"/>
<path id="path128" class="st1" d="M244.91,19.84v17.01"/>
<path id="path130" class="st1" d="M239.24,19.84v17.01"/>
<path id="path132" class="st1" d="M235.28,19.84v17.01"/>
<path id="path134" class="st1" d="M229.61,19.84v17.01"/>
<path id="path136" class="st1" d="M227.28,19.84v17.01"/>
<path id="path138" class="st1" d="M221.61,19.84v17.01"/>
<path id="path140" class="st1" d="M217.64,19.84v17.01"/>
<path id="path142" class="st1" d="M211.97,19.84v17.01"/>
<path id="path144" class="st1" d="M205.23,19.84v17.01"/>
<path id="path146" class="st1" d="M199.56,19.84v17.01"/>
<path id="path148" class="st1" d="M195.59,19.84v17.01"/>
<path id="path150" class="st1" d="M189.92,19.84v17.01"/>
<path id="path152" class="st1" d="M159.87,19.84v17.01"/>
<path id="path154" class="st1" d="M154.2,19.84v17.01"/>
<path id="path156" class="st1" d="M150.24,19.84v17.01"/>
<path id="path158" class="st1" d="M144.57,19.84v17.01"/>
<path id="path160" class="st1" d="M142.24,19.84v17.01"/>
<path id="path162" class="st1" d="M136.57,19.84v17.01"/>
<path id="path164" class="st1" d="M132.6,19.84v17.01"/>
<path id="path166" class="st1" d="M126.93,19.84v17.01"/>
<path id="path168" class="st1" d="M120.19,19.84v17.01"/>
<path id="path170" class="st1" d="M114.52,19.84v17.01"/>
<path id="path172" class="st1" d="M110.55,19.84v17.01"/>
<path id="path174" class="st1" d="M104.88,19.84v17.01"/>
<path id="path176" class="st1" d="M74.83,19.84v17.01"/>
<path id="path178" class="st1" d="M69.17,19.84v17.01"/>
<path id="path180" class="st1" d="M65.2,19.84v17.01"/>
<path id="path182" class="st1" d="M59.53,19.84v17.01"/>
<path id="path184" class="st1" d="M57.2,19.84v17.01"/>
<path id="path186" class="st1" d="M51.53,19.84v17.01"/>
<path id="path188" class="st1" d="M47.56,19.84v17.01"/>
<path id="path190" class="st1" d="M41.89,19.84v17.01"/>
<path id="path192" class="st1" d="M35.15,19.84v17.01"/>
<path id="path194" class="st1" d="M29.48,19.84v17.01"/>
<path id="path196" class="st1" d="M25.51,19.84v17.01"/>
<path id="path198" class="st1" d="M19.84,19.84v17.01"/>
<path id="path200" class="st1" d="M375.31,104.88v17.01"/>
<path id="path202" class="st1" d="M369.64,104.88v17.01"/>
<path id="path204" class="st1" d="M365.67,104.88v17.01"/>
<path id="path206" class="st1" d="M360,104.88v17.01"/>
<path id="path208" class="st1" d="M329.95,104.88v17.01"/>
<path id="path210" class="st1" d="M324.28,104.88v17.01"/>
<path id="path212" class="st1" d="M320.31,104.88v17.01"/>
<path id="path214" class="st1" d="M314.65,104.88v17.01"/>
<path id="path216" class="st1" d="M307.91,104.88v17.01"/>
<path id="path218" class="st1" d="M302.24,104.88v17.01"/>
<path id="path220" class="st1" d="M298.27,104.88v17.01"/>
<path id="path222" class="st1" d="M292.6,104.88v17.01"/>
<path id="path224" class="st1" d="M290.27,104.88v17.01"/>
<path id="path226" class="st1" d="M284.6,104.88v17.01"/>
<path id="path228" class="st1" d="M280.63,104.88v17.01"/>
<path id="path230" class="st1" d="M274.96,104.88v17.01"/>
<path id="path232" class="st1" d="M244.91,104.88v17.01"/>
<path id="path234" class="st1" d="M239.24,104.88v17.01"/>
<path id="path236" class="st1" d="M235.28,104.88v17.01"/>
<path id="path238" class="st1" d="M229.61,104.88v17.01"/>
<path id="path240" class="st1" d="M222.85,104.88v17.01"/>
<path id="path242" class="st1" d="M217.18,104.88v17.01"/>
<path id="path244" class="st1" d="M213.21,104.88v17.01"/>
<path id="path246" class="st1" d="M207.54,104.88v17.01"/>
<path id="path248" class="st1" d="M205.23,104.88v17.01"/>
<path id="path250" class="st1" d="M199.56,104.88v17.01"/>
<path id="path252" class="st1" d="M195.59,104.88v17.01"/>
<path id="path254" class="st1" d="M189.92,104.88v17.01"/>
<path id="path256" class="st1" d="M159.87,104.88v17.01"/>
<path id="path258" class="st1" d="M154.2,104.88v17.01"/>
<path id="path260" class="st1" d="M150.24,104.88v17.01"/>
<path id="path262" class="st1" d="M144.57,104.88v17.01"/>
<path id="path264" class="st1" d="M137.83,104.88v17.01"/>
<path id="path266" class="st1" d="M132.16,104.88v17.01"/>
<path id="path268" class="st1" d="M128.19,104.88v17.01"/>
<path id="path270" class="st1" d="M122.52,104.88v17.01"/>
<path id="path272" class="st1" d="M120.19,104.88v17.01"/>
<path id="path274" class="st1" d="M114.52,104.88v17.01"/>
<path id="path276" class="st1" d="M110.55,104.88v17.01"/>
<path id="path278" class="st1" d="M104.88,104.88v17.01"/>
<path id="path280" class="st1" d="M74.83,104.88v17.01"/>
<path id="path282" class="st1" d="M69.17,104.88v17.01"/>
<path id="path284" class="st1" d="M65.2,104.88v17.01"/>
<path id="path286" class="st1" d="M59.53,104.88v17.01"/>
<path id="path288" class="st1" d="M52.77,104.88v17.01"/>
<path id="path290" class="st1" d="M47.1,104.88v17.01"/>
<path id="path292" class="st1" d="M43.13,104.88v17.01"/>
<path id="path294" class="st1" d="M37.46,104.88v17.01"/>
<path id="path302" class="st0" d="M335.62,19.84h-5.67"/>
<path id="path304" class="st0" d="M19.84,19.84h-5.67"/>
<path id="path306" class="st2" d="M335.62,14.17v5.67"/>
<path id="path308" class="st2" d="M14.17,14.17v5.67"/>
<path id="path310" class="st3" d="M335.62,14.17H14.17"/>
<path id="path312" class="st0" d="M324.28,19.84h-3.97"/>
<path id="path314" class="st0" d="M306.65,19.84h-3.97"/>
<path id="path316" class="st0" d="M284.6,19.84h-3.97"/>
<path id="path318" class="st0" d="M239.24,19.84h-3.97"/>
<path id="path320" class="st0" d="M221.61,19.84h-3.97"/>
<path id="path322" class="st0" d="M199.56,19.84h-3.97"/>
<path id="path324" class="st0" d="M154.2,19.84h-3.97"/>
<path id="path326" class="st0" d="M114.52,19.84h-3.97"/>
<path id="path328" class="st0" d="M136.57,19.84h-3.97"/>
<path id="path330" class="st0" d="M69.17,19.84H65.2"/>
<path id="path332" class="st0" d="M51.53,19.84h-3.97"/>
<path id="path334" class="st0" d="M29.48,19.84h-3.97"/>
<path id="path336" class="st0" d="M274.96,19.84h-30.05"/>
<path id="path338" class="st0" d="M189.92,19.84h-30.05"/>
<path id="path340" class="st0" d="M104.88,19.84H74.83"/>
<path id="path342" class="st3" d="M314.65,19.84l-2.33,0"/>
<path id="path344" class="st3" d="M297.01,19.84l-6.74,0"/>
<path id="path346" class="st3" d="M229.61,19.84l-2.33,0"/>
<path id="path348" class="st3" d="M211.97,19.84l-6.74,0"/>
<path id="path350" class="st3" d="M144.57,19.84l-2.33,0"/>
<path id="path352" class="st3" d="M126.93,19.84l-6.74,0"/>
<path id="path354" class="st3" d="M59.53,19.84l-2.33,0"/>
<path id="path356" class="st3" d="M41.89,19.84l-6.74,0"/>
<path id="path358" class="st0" d="M369.64,121.89h-3.97"/>
<path id="path360" class="st0" d="M360,121.89h-30.05"/>
<path id="path362" class="st0" d="M324.28,121.89h-3.97"/>
<path id="path364" class="st0" d="M302.24,121.89h-3.97"/>
<path id="path366" class="st0" d="M284.6,121.89h-3.97"/>
<path id="path368" class="st0" d="M274.96,121.89h-30.05"/>
<path id="path370" class="st0" d="M239.24,121.89h-3.97"/>
<path id="path372" class="st0" d="M217.18,121.89h-3.97"/>
<path id="path374" class="st0" d="M199.56,121.89h-3.97"/>
<path id="path376" class="st0" d="M189.92,121.89h-30.05"/>
<path id="path378" class="st0" d="M154.2,121.89h-3.97"/>
<path id="path380" class="st0" d="M132.16,121.89h-3.97"/>
<path id="path382" class="st0" d="M114.52,121.89h-3.97"/>
<path id="path384" class="st0" d="M104.88,121.89H74.83"/>
<path id="path386" class="st0" d="M69.17,121.89H65.2"/>
<path id="path388" class="st0" d="M47.1,121.89h-3.97"/>
<path id="path390" class="st0" d="M37.46,121.89h-5.67"/>
<path id="path392" class="st0" d="M380.98,121.89h-5.67"/>
<path id="path394" class="st2" d="M380.98,121.89v5.67"/>
<path id="path396" class="st2" d="M31.79,121.89v5.67"/>
<path id="path398" class="st3" d="M380.98,127.56H31.79"/>
<path id="path400" class="st3" d="M314.65,121.89h-6.74"/>
<path id="path402" class="st3" d="M292.6,121.89h-2.33"/>
<path id="path404" class="st3" d="M229.61,121.89h-6.76"/>
<path id="path406" class="st3" d="M207.54,121.89h-2.31"/>
<path id="path408" class="st3" d="M144.57,121.89h-6.74"/>
<path id="path410" class="st3" d="M122.52,121.89h-2.33"/>
<path id="path412" class="st3" d="M59.53,121.89h-6.76"/>
</svg>
